<svg xmlns="http://www.w3.org/2000/svg" viewBox="0 0 32 32" width="32" height="32">
  <rect width="32" height="32" rx="8" fill="#a8384a"/>
  <g fill="none" stroke="#f5efe6" stroke-width="1.4" stroke-linecap="round" opacity="0.9">
    <path d="M13 6.5c0 1.3-1.1 1.6-1.1 2.8S13 12 13 13.3"/>
    <path d="M19 6.5c0 1.3-1.1 1.6-1.1 2.8S19 12 19 13.3"/>
  </g>
  <path d="M7.5 14.5h13.5v3.5a5.25 5.25 0 0 1-5.25 5.25h-3A5.25 5.25 0 0 1 7.5 18z" fill="#f5efe6"/>
  <path d="M21 15.5h1.6a2.9 2.9 0 0 1 0 5.8H21" fill="none" stroke="#f5efe6" stroke-width="2"/>
  <rect x="6" y="24.6" width="17" height="2.3" rx="1.15" fill="#f5efe6"/>
</svg>
